 <svg version="1.0" xmlns="http://www.w3.org/2000/svg" width="700.000000pt" height="700.000000pt" viewBox="0 0 700.000000 700.000000" preserveAspectRatio="xMidYMid meet">
<metadata>
Created by potrace 1.12, written by Peter Selinger 2001-2015
</metadata>
<g transform="translate(0.000000,700.000000) scale(0.100000,-0.100000)" fill="#A2ACC0" stroke="none">
<path d="M2193 4794 c-1075 -1076 -1273 -1278 -1273 -1301 0 -24 199 -227
1274 -1302 1101 -1101 1277 -1273 1290 -1261 14 11 16 93 16 729 0 434 4 722
10 731 8 13 168 16 1307 20 l1298 5 0 1080 0 1080 -1298 5 c-1139 4 -1299 7
-1307 20 -6 9 -10 297 -10 731 0 701 -2 742 -29 738 -4 0 -579 -574 -1278
-1275z"></path>
</g>
</svg>