 <svg version="1.0" xmlns="http://www.w3.org/2000/svg" width="700.000000pt" height="700.000000pt" viewBox="0 0 700.000000 700.000000" preserveAspectRatio="xMidYMid meet">
<metadata>
Created by potrace 1.12, written by Peter Selinger 2001-2015
</metadata>
<g transform="translate(0.000000,700.000000) scale(0.100000,-0.100000)" fill="#ffffff" stroke="none">
<path d="M5014 6979 c-16 -16 -48 -25 -135 -38 -63 -9 -128 -24 -144 -33 -17
-9 -49 -20 -70 -23 -22 -4 -58 -18 -81 -31 -22 -13 -47 -24 -55 -24 -8 0 -30
-11 -49 -24 -19 -13 -46 -27 -60 -31 -14 -4 -38 -18 -53 -31 -16 -13 -35 -24
-42 -24 -12 0 -48 -27 -201 -151 -65 -52 -1446 -1435 -1508 -1509 -109 -131
-146 -181 -146 -196 0 -7 -11 -25 -24 -41 -13 -15 -27 -39 -31 -53 -4 -14 -18
-41 -31 -60 -13 -19 -24 -41 -24 -50 0 -8 -9 -30 -21 -49 -11 -19 -29 -64 -39
-100 -10 -36 -25 -86 -33 -111 -13 -41 -33 -146 -59 -320 -13 -86 -3 -321 16
-390 9 -30 19 -84 22 -120 4 -36 17 -90 29 -120 12 -30 26 -73 30 -95 4 -22
18 -58 31 -81 13 -22 24 -47 24 -55 0 -8 11 -30 24 -49 13 -19 27 -46 31 -60
4 -14 18 -38 31 -53 13 -16 24 -34 24 -41 0 -11 52 -81 152 -204 76 -94 248
-246 358 -316 25 -16 57 -38 73 -48 15 -10 46 -28 70 -39 106 -50 137 -70 137
-86 0 -20 -1021 -1041 -1093 -1093 -27 -19 -61 -45 -76 -57 -15 -12 -41 -25
-57 -29 -16 -4 -56 -18 -89 -31 -54 -23 -72 -25 -202 -25 -131 1 -147 3 -196
27 -30 14 -60 25 -67 25 -37 0 -199 125 -248 191 -51 69 -92 133 -92 146 0 6
-11 35 -25 65 -23 49 -25 64 -25 201 0 135 2 153 25 207 14 33 25 65 25 71 0
14 50 94 98 158 18 24 188 199 378 390 513 513 504 503 504 544 0 27 -8 42
-35 66 -42 37 -70 39 -111 9 -36 -28 -859 -852 -892 -894 -61 -78 -128 -204
-148 -279 -7 -27 -20 -75 -29 -105 -25 -90 -20 -255 11 -369 35 -131 101 -261
169 -336 11 -13 34 -38 50 -56 17 -19 42 -42 55 -52 14 -9 45 -33 70 -52 59
-45 174 -102 230 -114 25 -6 65 -17 89 -26 65 -23 271 -21 342 4 30 10 72 21
94 25 47 9 156 60 201 93 17 13 36 23 43 23 21 0 1488 1475 1510 1518 11 22
25 43 30 46 5 4 15 23 22 44 6 20 20 47 30 60 9 12 20 42 24 65 4 23 16 71 26
107 30 97 27 238 -7 371 -24 97 -84 241 -105 255 -5 3 -15 20 -23 38 -16 40
-164 189 -214 217 -137 75 -189 99 -217 99 -50 0 -60 20 -59 121 1 66 7 99 22
131 11 24 25 59 30 78 22 84 206 309 252 310 24 0 121 -38 140 -55 9 -8 23
-15 31 -15 8 0 38 -15 66 -33 28 -17 69 -43 93 -57 155 -93 391 -336 474 -492
14 -26 30 -49 35 -52 5 -4 12 -19 16 -35 3 -16 17 -43 31 -62 13 -18 24 -40
24 -48 0 -9 12 -41 26 -71 14 -30 30 -81 35 -114 6 -32 18 -73 27 -90 15 -27
17 -66 17 -321 0 -260 -2 -294 -18 -330 -10 -22 -23 -66 -28 -97 -5 -32 -21
-79 -34 -104 -14 -26 -25 -54 -25 -62 0 -8 -11 -34 -24 -56 -13 -23 -27 -52
-31 -66 -4 -14 -17 -36 -27 -50 -11 -14 -38 -54 -60 -90 -23 -36 -61 -90 -86
-120 -74 -89 -1460 -1474 -1542 -1540 -41 -34 -97 -75 -125 -92 -27 -17 -66
-41 -85 -54 -19 -12 -46 -25 -60 -29 -14 -4 -36 -16 -50 -25 -14 -10 -45 -23
-69 -30 -24 -6 -54 -18 -66 -26 -12 -8 -53 -21 -91 -28 -38 -7 -96 -22 -129
-32 -52 -16 -93 -19 -300 -19 -218 0 -246 2 -310 22 -38 12 -88 24 -110 28
-22 3 -62 17 -90 30 -27 12 -64 26 -82 30 -17 3 -37 12 -43 20 -6 8 -33 21
-60 30 -26 9 -56 25 -65 35 -10 11 -22 20 -28 20 -17 0 -97 54 -170 114 -74
61 -247 235 -247 248 0 4 -8 15 -18 25 -24 25 -92 127 -92 140 0 5 -9 18 -20
28 -10 9 -25 34 -31 54 -6 20 -20 47 -29 61 -10 14 -23 44 -29 68 -7 23 -20
57 -30 75 -11 17 -22 55 -26 82 -4 28 -16 77 -28 110 -20 55 -22 80 -22 315 0
237 2 259 22 315 12 33 25 83 29 110 3 28 14 64 24 80 10 17 24 51 30 77 7 26
18 52 26 58 7 7 20 33 29 60 9 26 25 56 35 65 11 10 20 23 20 28 0 15 66 114
119 177 24 30 351 362 725 737 433 433 683 692 688 709 12 44 -2 84 -36 105
-38 23 -49 23 -91 3 -35 -16 -1348 -1325 -1412 -1408 -21 -26 -59 -74 -85
-106 -26 -32 -54 -73 -63 -91 -20 -42 -54 -104 -82 -150 -11 -19 -24 -48 -28
-66 -3 -17 -12 -37 -20 -43 -7 -6 -19 -34 -25 -63 -7 -29 -21 -72 -30 -97 -10
-25 -26 -90 -34 -145 -12 -75 -21 -104 -36 -117 -19 -15 -20 -29 -20 -242 0
-151 3 -226 11 -226 17 0 37 -60 49 -150 6 -47 20 -104 30 -126 10 -23 21 -57
25 -75 4 -19 15 -48 25 -65 9 -17 23 -48 30 -70 7 -21 20 -50 29 -64 9 -14 26
-42 36 -64 59 -114 85 -152 218 -306 91 -107 314 -298 373 -320 16 -6 38 -19
49 -29 11 -10 35 -23 53 -29 18 -6 45 -20 59 -32 14 -11 33 -20 42 -20 9 0 30
-9 48 -20 18 -10 60 -27 95 -35 34 -9 72 -22 83 -28 11 -6 70 -19 130 -28 85
-14 114 -23 127 -39 15 -19 27 -20 233 -20 204 0 218 1 233 20 13 15 42 24
122 35 58 9 119 22 137 30 18 8 59 21 93 30 33 9 75 25 93 35 18 11 39 20 48
20 9 0 28 9 42 20 14 12 41 26 59 32 18 6 46 22 61 35 16 12 35 23 42 23 12 0
49 28 203 152 72 59 1399 1384 1481 1480 111 129 158 192 174 230 8 19 19 38
25 42 5 3 28 45 52 93 23 49 50 104 60 123 10 19 21 51 25 70 4 19 16 53 26
76 10 23 23 72 29 110 6 38 20 106 30 152 25 107 28 391 5 492 -8 36 -20 94
-26 130 -5 36 -17 85 -25 110 -9 25 -22 68 -30 95 -14 45 -46 120 -80 185 -7
14 -25 48 -39 75 -23 46 -44 81 -100 161 -71 104 -270 313 -351 368 -17 12
-55 39 -84 60 -64 48 -86 61 -262 151 -27 14 -48 31 -48 38 0 14 1013 1029
1092 1094 62 51 108 78 155 93 21 7 49 19 63 28 53 34 348 33 402 -1 13 -9 43
-21 68 -27 46 -12 60 -21 163 -106 78 -65 153 -165 183 -248 9 -22 22 -57 29
-76 10 -24 14 -82 15 -178 0 -130 -2 -148 -25 -202 -14 -33 -25 -65 -25 -72 0
-12 -27 -57 -87 -143 -16 -22 -218 -231 -451 -465 -233 -234 -427 -432 -432
-440 -5 -8 -10 -29 -10 -47 0 -24 8 -38 37 -62 45 -37 64 -38 106 -9 37 25
853 840 880 878 10 14 31 43 47 65 46 62 100 173 121 250 11 39 24 86 30 105
18 63 12 248 -10 320 -10 36 -22 80 -26 99 -11 54 -96 208 -145 262 -141 157
-260 235 -445 290 -114 34 -309 39 -403 10 -37 -11 -85 -25 -107 -30 -36 -9
-107 -43 -195 -96 -18 -11 -92 -77 -164 -147 -254 -244 -1262 -1254 -1311
-1313 -142 -168 -215 -363 -215 -574 0 -73 5 -123 16 -152 8 -24 19 -66 25
-94 9 -50 72 -190 90 -201 5 -3 15 -20 23 -37 13 -31 118 -143 167 -179 105
-78 222 -138 266 -138 46 0 57 -27 56 -126 -1 -63 -8 -96 -27 -143 -14 -33
-26 -66 -26 -73 0 -14 -37 -72 -92 -148 -47 -65 -136 -150 -156 -150 -22 0
-100 30 -132 52 -14 9 -36 19 -50 23 -14 4 -43 19 -65 33 -22 14 -65 41 -95
60 -130 82 -359 307 -414 407 -9 17 -30 50 -46 75 -68 105 -147 287 -166 385
-8 39 -22 90 -32 115 -14 38 -17 82 -17 295 0 229 2 256 22 320 12 39 25 90
28 115 4 25 15 59 25 75 10 17 21 46 25 65 4 19 17 51 30 70 13 19 26 46 30
60 4 14 17 41 29 60 13 19 40 62 61 95 21 33 61 87 89 120 75 89 1459 1471
1543 1540 39 33 93 73 120 89 26 16 64 39 83 51 19 13 46 26 60 30 14 4 36 16
50 25 14 10 44 23 68 29 23 7 57 20 75 30 17 11 54 22 81 26 26 3 76 16 110
28 55 19 83 21 311 21 231 1 255 -1 320 -21 39 -12 90 -25 115 -29 25 -4 65
-17 90 -29 25 -12 58 -25 74 -29 17 -4 41 -15 55 -25 14 -10 37 -22 51 -26 14
-4 41 -17 60 -29 110 -71 157 -103 173 -118 10 -10 21 -18 25 -18 12 0 184
-170 238 -235 27 -33 67 -87 88 -120 22 -33 48 -73 58 -88 11 -15 26 -46 34
-69 8 -23 21 -49 28 -58 8 -8 19 -34 25 -58 7 -23 20 -57 30 -75 11 -17 22
-54 25 -82 4 -27 17 -77 29 -110 20 -56 22 -78 22 -315 -1 -238 -2 -259 -23
-314 -12 -33 -25 -83 -28 -110 -4 -28 -17 -72 -30 -98 -13 -26 -24 -55 -24
-65 0 -10 -11 -34 -24 -53 -13 -19 -27 -46 -31 -60 -4 -14 -17 -41 -29 -60
-13 -19 -38 -60 -56 -90 -67 -109 -37 -78 -1321 -1368 -86 -87 -161 -167 -167
-179 -21 -39 -15 -89 15 -112 38 -31 66 -35 104 -16 36 18 1323 1305 1397
1397 127 158 152 191 152 203 0 7 11 26 24 42 13 15 27 39 31 53 4 14 18 41
31 60 13 19 24 41 24 50 0 8 9 30 20 48 11 17 25 53 31 80 7 26 18 60 26 75 8
16 23 80 34 143 19 116 31 154 49 154 6 0 10 87 10 224 0 191 -2 225 -15 230
-22 8 -33 43 -45 142 -6 48 -19 103 -29 123 -10 20 -22 56 -26 81 -4 25 -18
63 -31 86 -13 22 -24 48 -24 56 0 8 -9 27 -20 41 -12 14 -26 41 -32 59 -6 18
-19 42 -29 53 -10 11 -23 33 -29 49 -11 30 -62 97 -173 226 -59 70 -166 169
-254 237 -15 12 -42 33 -58 46 -17 14 -46 32 -65 41 -19 10 -62 32 -95 51 -33
19 -71 39 -85 45 -14 7 -47 22 -75 35 -27 13 -65 26 -84 30 -18 4 -52 15 -75
25 -22 10 -77 23 -121 29 -98 14 -141 27 -149 46 -4 13 -43 15 -228 15 -213 0
-225 -1 -244 -21z m-1595 -3359 c13 0 52 -30 105 -80 68 -65 87 -91 101 -132
17 -54 16 -68 -5 -43 -7 8 -24 15 -37 15 -38 0 -183 145 -210 209 -22 53 -20
70 7 46 9 -8 26 -15 39 -15z"></path>
</g>
</svg>