 <svg version="1.0" xmlns="http://www.w3.org/2000/svg" width="700.000000pt" height="700.000000pt" viewBox="0 0 700.000000 700.000000" preserveAspectRatio="xMidYMid meet">
<metadata>
Created by potrace 1.12, written by Peter Selinger 2001-2015
</metadata>
<g transform="translate(0.000000,700.000000) scale(0.100000,-0.100000)" fill="#D74D1B" stroke="none">
<path d="M352 6785 c-201 -56 -187 -353 19 -394 89 -18 681 -50 946 -51 46 0
101 -50 108 -98 3 -20 14 -66 25 -102 10 -36 24 -95 30 -131 5 -37 17 -85 25
-108 8 -24 22 -82 30 -131 8 -49 22 -103 29 -122 8 -18 19 -69 26 -113 7 -44
18 -95 26 -113 7 -19 21 -73 29 -122 8 -49 22 -103 29 -122 8 -18 19 -67 25
-108 7 -41 20 -97 30 -125 10 -27 21 -76 25 -107 3 -32 15 -81 25 -110 11 -29
25 -86 31 -127 7 -41 18 -88 26 -106 7 -17 18 -63 24 -101 6 -38 20 -94 30
-124 11 -30 24 -88 30 -128 6 -41 17 -86 24 -100 8 -15 19 -63 26 -107 7 -44
21 -101 31 -126 9 -25 20 -67 24 -95 4 -27 17 -87 30 -134 13 -47 27 -105 30
-130 4 -25 15 -67 25 -95 10 -27 21 -75 25 -105 3 -30 17 -87 31 -127 13 -39
24 -85 24 -102 0 -17 11 -65 25 -108 35 -110 33 -144 -11 -192 -19 -22 -48
-43 -64 -46 -16 -4 -39 -14 -52 -24 -13 -10 -38 -26 -56 -35 -45 -23 -134
-115 -177 -182 -20 -31 -50 -94 -66 -140 -28 -77 -31 -92 -27 -191 4 -126 19
-174 97 -313 32 -57 181 -200 209 -200 5 0 21 -10 36 -21 15 -12 78 -34 139
-50 l112 -29 1860 0 1860 0 50 26 c68 36 94 61 116 112 23 54 24 91 1 164 -20
65 -55 109 -111 138 -40 20 -51 20 -1879 20 -1162 0 -1858 4 -1891 10 -67 13
-111 47 -145 114 -31 62 -29 86 16 158 33 53 69 73 153 86 35 6 734 9 1676 9
1466 1 1618 2 1647 17 22 11 40 35 62 83 18 38 43 91 56 118 13 28 24 57 24
65 0 8 11 33 25 55 13 22 25 47 25 56 0 9 11 36 23 60 13 24 30 62 37 84 7 22
21 53 31 70 11 16 19 37 19 45 0 8 14 42 30 75 16 33 30 66 30 73 0 8 9 26 19
41 10 14 24 45 30 69 7 23 20 57 30 75 10 17 24 50 31 72 7 22 18 47 25 55 7
8 18 35 25 60 7 24 20 55 31 68 10 14 19 32 19 41 0 9 13 43 30 76 16 33 30
67 30 75 0 8 11 33 25 55 13 22 25 47 25 55 0 9 13 42 30 75 16 33 30 67 30
75 0 8 11 33 25 55 13 22 25 47 25 55 0 8 14 42 30 75 16 33 30 67 30 75 0 8
11 33 25 55 13 22 25 47 25 56 0 9 11 36 23 60 13 24 30 62 37 84 7 22 21 53
31 70 11 16 19 36 19 44 0 8 14 43 31 78 37 76 44 153 16 181 -17 16 -153 17
-2260 22 -2228 5 -2242 5 -2277 25 -43 25 -86 108 -95 185 -4 30 -17 93 -30
140 -14 47 -27 110 -31 140 -4 30 -15 77 -25 104 -10 28 -23 86 -29 129 -6 44
-19 100 -29 126 -10 25 -22 75 -26 111 -4 36 -16 88 -25 115 -10 28 -24 84
-30 125 -6 41 -19 98 -29 125 -10 28 -22 79 -26 115 -4 36 -14 81 -21 100 -8
19 -20 65 -28 102 -17 80 -54 133 -124 175 l-47 28 -420 6 c-231 4 -508 10
-615 13 -155 4 -206 3 -248 -9z"></path>
<path d="M2608 1107 c-133 -55 -215 -144 -269 -290 -36 -100 -39 -198 -9 -266
11 -24 20 -51 20 -61 0 -29 73 -128 128 -173 83 -69 118 -86 211 -103 82 -16
96 -16 182 -2 78 13 106 23 159 56 103 65 170 154 205 273 31 103 31 163 0
262 -46 148 -138 250 -278 306 -70 27 -90 31 -175 30 -85 0 -106 -4 -174 -32z"></path>
<path d="M5115 1107 c-65 -26 -91 -44 -150 -102 -63 -62 -75 -81 -108 -163
-32 -79 -37 -103 -37 -171 0 -66 5 -93 31 -158 70 -175 182 -271 351 -300 77
-13 98 -13 180 0 60 9 107 23 132 38 61 38 146 119 182 177 79 122 84 364 10
470 -14 21 -26 43 -26 48 0 6 -27 35 -59 65 -42 38 -86 66 -145 92 -79 35 -91
37 -183 36 -86 0 -108 -4 -178 -32z"></path>
</g>
</svg>