 <svg version="1.0" xmlns="http://www.w3.org/2000/svg" width="700.000000pt" height="700.000000pt" viewBox="0 0 700.000000 700.000000" preserveAspectRatio="xMidYMid meet">
<metadata>
Created by potrace 1.12, written by Peter Selinger 2001-2015
</metadata>
<g transform="translate(0.000000,700.000000) scale(0.100000,-0.100000)" fill="#000000" stroke="none">
<path d="M3216 4443 c-699 -699 -856 -861 -852 -877 6 -21 1695 -1716 1710
-1716 23 0 68 39 224 193 107 108 172 179 172 192 0 13 -227 246 -650 670
-389 390 -650 658 -650 669 0 11 260 278 650 668 362 362 650 657 650 666 0
19 -369 392 -387 392 -6 0 -396 -386 -867 -857z"></path>
</g>
</svg>