 <svg version="1.0" xmlns="http://www.w3.org/2000/svg" width="700.000000pt" height="700.000000pt" viewBox="0 0 700.000000 700.000000" preserveAspectRatio="xMidYMid meet">
<metadata>
Created by potrace 1.12, written by Peter Selinger 2001-2015
</metadata>
<g transform="translate(0.000000,700.000000) scale(0.100000,-0.100000)" fill="#ffffff" stroke="none">
<path d="M3285 6404 c-66 -8 -142 -23 -170 -33 -27 -11 -70 -25 -95 -31 -25
-7 -65 -23 -90 -36 -25 -13 -50 -24 -56 -24 -14 0 -124 -66 -250 -151 -88 -59
-247 -230 -340 -364 -44 -66 -139 -257 -149 -304 -4 -18 -15 -52 -25 -75 -10
-22 -28 -115 -40 -206 -25 -187 -31 -207 -63 -219 -12 -5 -172 -9 -354 -10
-292 -1 -341 -4 -407 -21 -123 -31 -213 -110 -280 -244 -30 -59 -31 -65 -30
-186 1 -88 7 -151 22 -215 11 -49 24 -133 27 -185 4 -52 15 -137 26 -189 10
-51 23 -144 29 -205 6 -61 19 -156 30 -211 11 -55 24 -152 30 -215 6 -63 17
-143 25 -177 8 -35 19 -116 25 -180 6 -65 19 -161 30 -213 10 -52 22 -135 25
-185 4 -49 16 -132 26 -184 10 -52 24 -146 30 -210 6 -64 19 -156 29 -206 10
-49 21 -130 25 -180 4 -49 15 -133 26 -185 10 -52 23 -147 29 -210 6 -63 19
-158 30 -210 10 -52 22 -126 25 -165 9 -90 48 -173 117 -246 58 -61 141 -112
202 -123 51 -10 3462 -9 3513 0 60 11 143 62 201 123 71 75 108 156 117 251 4
41 16 116 26 165 10 50 23 142 29 205 5 63 18 158 29 210 11 52 22 136 26 185
4 50 15 131 25 180 10 50 23 143 29 208 6 64 18 149 26 188 8 39 22 137 30
218 9 80 22 171 30 201 7 30 18 110 24 177 6 67 18 151 26 185 8 35 19 115 25
178 6 63 19 160 30 215 11 55 24 150 29 211 6 62 17 141 25 178 9 36 20 119
26 184 6 64 20 162 32 217 15 70 22 136 22 220 0 114 -2 123 -30 181 -66 134
-153 210 -280 243 -72 19 -111 21 -420 23 -398 3 -378 -2 -387 101 -17 184
-58 368 -107 472 -80 172 -91 192 -165 296 -111 157 -304 330 -463 414 -26 14
-54 29 -62 35 -27 17 -154 68 -189 75 -18 4 -52 15 -75 25 -87 39 -408 57
-601 34z m381 -273 c158 -16 376 -101 499 -196 11 -8 46 -35 77 -59 113 -87
283 -299 303 -378 4 -15 13 -32 21 -39 8 -6 19 -30 25 -53 6 -22 21 -68 33
-101 16 -39 28 -103 36 -185 l12 -125 -26 -22 -26 -22 -1111 0 c-637 0 -1120
4 -1134 9 -41 16 -45 37 -34 166 8 78 19 140 34 179 13 33 28 79 34 101 6 23
17 47 25 53 8 7 17 24 21 39 22 87 233 341 346 415 144 96 234 141 359 182
123 40 317 54 506 36z m-1637 -1487 c19 -24 21 -39 20 -153 -2 -159 15 -209
80 -235 55 -21 78 -20 125 7 60 34 75 82 75 244 1 125 2 133 23 147 20 14 145
16 1148 16 1003 0 1128 -2 1148 -16 21 -14 22 -22 23 -147 0 -162 15 -210 75
-244 47 -27 70 -28 125 -7 63 26 79 72 79 233 0 115 2 131 21 155 l20 26 331
0 c376 0 393 -2 438 -64 26 -34 30 -49 30 -104 0 -35 -7 -90 -15 -122 -8 -32
-22 -124 -30 -203 -8 -80 -21 -174 -29 -209 -8 -35 -20 -119 -26 -188 -6 -69
-18 -150 -25 -180 -8 -30 -20 -109 -25 -175 -6 -66 -20 -163 -30 -215 -11 -52
-24 -149 -30 -215 -6 -66 -17 -149 -26 -185 -8 -35 -21 -127 -29 -205 -8 -77
-21 -169 -29 -205 -8 -36 -20 -121 -26 -190 -6 -69 -18 -152 -26 -185 -7 -33
-18 -112 -24 -175 -6 -63 -19 -158 -30 -210 -11 -52 -24 -149 -30 -215 -6 -66
-17 -148 -25 -182 -8 -34 -19 -107 -24 -162 -10 -111 -14 -122 -66 -171 l-36
-35 -1682 -3 c-925 -1 -1697 0 -1715 3 -30 5 -83 51 -105 91 -5 9 -13 57 -17
109 -5 52 -18 138 -29 192 -10 54 -22 141 -26 193 -3 52 -15 133 -25 180 -10
47 -21 123 -25 170 -4 47 -17 146 -30 220 -13 74 -26 171 -30 215 -3 44 -14
123 -25 175 -10 52 -22 133 -25 180 -4 47 -15 130 -26 185 -10 55 -23 152 -29
215 -6 63 -19 156 -29 205 -11 50 -22 131 -26 180 -4 50 -16 135 -26 189 -11
55 -24 149 -30 210 -5 61 -18 152 -28 201 -11 50 -22 133 -26 185 -4 52 -15
137 -26 189 -28 139 -26 198 10 246 16 22 44 45 63 51 23 9 133 13 370 13
l337 1 20 -26z"></path>
</g>
</svg>