 <svg version="1.0" xmlns="http://www.w3.org/2000/svg" width="25.000000pt" height="22.000000pt" viewBox="0 0 700.000000 700.000000" preserveAspectRatio="xMidYMid meet">
<metadata>
Created by potrace 1.12, written by Peter Selinger 2001-2015
</metadata>
<g transform="translate(0.000000,700.000000) scale(0.100000,-0.100000)" fill="#ffffff" stroke="none">
<path d="M1148 5137 c-153 -58 -240 -174 -242 -326 -1 -110 30 -186 107 -257
64 -60 99 -77 186 -95 113 -24 250 33 328 135 73 95 91 209 52 325 -26 77
-111 170 -186 203 -60 27 -191 35 -245 15z"></path>
<path d="M2354 4994 c-67 -35 -102 -80 -115 -148 -18 -97 24 -186 111 -235
l38 -21 1886 0 c1842 0 1887 0 1924 19 172 88 160 321 -21 399 -21 9 -461 12
-1901 12 l-1872 0 -50 -26z"></path>
<path d="M1133 3827 c-75 -29 -132 -73 -172 -134 -39 -59 -53 -109 -53 -193 0
-84 14 -134 53 -193 36 -55 88 -98 155 -129 38 -17 68 -22 134 -23 74 0 93 4
145 29 222 110 273 383 103 558 -97 99 -240 132 -365 85z"></path>
<path d="M2404 3711 c-76 -13 -145 -82 -164 -165 -20 -91 18 -178 103 -234
l41 -27 1869 -3 c1241 -1 1881 1 1906 8 60 16 117 63 140 116 54 122 -2 255
-126 300 -31 11 -365 13 -1883 12 -1015 0 -1864 -4 -1886 -7z"></path>
<path d="M1170 2535 c-79 -22 -97 -33 -160 -92 -52 -50 -64 -69 -86 -133 -23
-64 -25 -84 -19 -145 21 -218 236 -363 447 -301 103 30 196 124 231 233 59
183 -52 382 -243 435 -74 21 -107 21 -170 3z"></path>
<path d="M2425 2410 c-58 -6 -109 -35 -146 -82 -35 -45 -42 -71 -41 -147 2
-53 7 -71 29 -100 35 -46 49 -58 98 -81 39 -19 86 -20 1906 -20 1386 0 1875 3
1900 12 183 62 200 311 28 399 -38 19 -75 19 -1881 22 -1014 1 -1865 0 -1893
-3z"></path>
</g>
</svg>