 <svg version="1.0" xmlns="http://www.w3.org/2000/svg" width="700.000000pt" height="700.000000pt" viewBox="0 0 700.000000 700.000000" preserveAspectRatio="xMidYMid meet">
<metadata>
Created by potrace 1.12, written by Peter Selinger 2001-2015
</metadata>
<g transform="translate(0.000000,700.000000) scale(0.100000,-0.100000)" fill="#ffffff" stroke="none">
<path d="M2484 6429 c-92 -11 -204 -56 -273 -107 -75 -57 -157 -160 -172 -217
-5 -22 -19 -66 -30 -98 -19 -56 -19 -108 -19 -2511 0 -2415 0 -2455 20 -2508
10 -29 24 -72 30 -95 12 -49 102 -166 155 -203 20 -14 48 -34 63 -46 15 -11
68 -32 117 -47 l90 -28 1039 0 1038 1 81 25 c80 25 121 48 201 110 41 32 136
159 136 182 0 7 11 46 25 85 l25 71 0 2452 0 2452 -25 77 c-14 42 -25 83 -25
90 0 21 -95 149 -136 183 -53 43 -113 83 -125 83 -6 0 -44 11 -84 25 l-73 26
-1004 2 c-551 1 -1026 -1 -1054 -4z m2192 -104 c81 -39 182 -132 204 -187 8
-18 23 -46 34 -63 l21 -30 0 -2540 0 -2540 -39 -74 c-62 -117 -163 -203 -286
-243 -29 -10 -2164 -12 -2206 -3 -121 27 -243 131 -305 258 l-39 81 2 2531 3
2530 39 69 c53 92 132 168 220 211 l71 35 1104 0 1104 0 73 -35z"></path>
<path d="M3084 6096 c-3 -8 -4 -25 -2 -38 2 -18 9 -23 32 -23 36 0 56 27 40
53 -14 22 -62 28 -70 8z"></path>
<path d="M3303 6094 c-2 -7 -3 -23 -1 -36 l3 -23 195 0 195 0 3 29 c2 16 -2
32 -10 37 -7 5 -95 8 -196 8 -140 -1 -185 -5 -189 -15z"></path>
<path d="M2213 5766 c-4 -8 -6 -1008 -3 -2223 l5 -2208 1285 0 1285 0 0 2220
0 2220 -1282 3 c-1104 2 -1283 0 -1290 -12z m2497 -76 c13 -20 13 -4250 0
-4270 -8 -13 -154 -15 -1210 -15 -1056 0 -1202 2 -1210 15 -11 18 -14 4249 -2
4266 4 7 16 14 27 17 11 3 552 4 1203 3 1039 -1 1184 -3 1192 -16z"></path>
<path d="M3407 1147 c-55 -37 -107 -116 -107 -162 0 -16 7 -41 15 -55 8 -14
22 -40 31 -57 10 -18 27 -36 38 -39 12 -4 32 -15 45 -25 36 -29 102 -25 161 9
38 22 57 42 80 85 16 31 30 69 30 83 0 46 -55 127 -109 162 -67 44 -119 43
-184 -1z m163 -47 c10 -5 28 -26 40 -45 30 -49 21 -123 -22 -165 -26 -27 -36
-30 -90 -30 -52 0 -63 4 -88 28 -54 54 -50 157 8 202 27 22 119 28 152 10z"></path>
</g>
</svg>